# xmcd
#
# Track frame offsets:
# 150
# 13540
# 27062
# 40751
# 57079
# 71144
# 81361
# 93541
# 112349
# 125151
# 139800
# 156611
# 170632
#
# Disc length: 2441 seconds
#
# Revision: 1
# Processed by: cddbd v1.5.2PL0 Copyright (c) Steve Scherf et al.
# Submitted via: CedeCatalogueitor 2.6.0.6 http://personales.ya.com/cdcatalogueitor
#
DISCID=bd09870d
DTITLE=Lagartija Nick - Inercia Reedición Especial
DYEAR=1900
DGENRE=
TTITLE0=Satelite
TTITLE1=Nuevo Harlem
TTITLE2=Universal
TTITLE3=Transfiguración
TTITLE4=Rock'n'roll Zine
TTITLE5=Eclipse
TTITLE6=Mi Chofer Psicodelico
TTITLE7=Solo Amnesia
TTITLE8=Cara B
TTITLE9=Cosmos
TTITLE10=Porno-stereo
TTITLE11=Esa Extraña Inercia
TTITLE12=
EXTD=
EXTT0=
EXTT1=
EXTT2=
EXTT3=
EXTT4=
EXTT5=
EXTT6=
EXTT7=
EXTT8=
EXTT9=
EXTT10=
EXTT11=
EXTT12=
PLAYORDER=
